<?xml version="1.0" encoding="UTF-8"?>
<svg id="_レイヤー_1" xmlns="http://www.w3.org/2000/svg" version="1.1" viewBox="0 0 1000 1000">
  <!-- Generator: Adobe Illustrator 30.1.0, SVG Export Plug-In . SVG Version: 2.1.1 Build 136)  -->
  <defs>
    <style>
      .st0 {
        fill: none;
      }

      .st1 {
        fill: #2bb5ea;
      }

      .st2 {
        fill: #6ebc66;
      }

      .st3 {
        fill: #e5216c;
      }

      .st4 {
        fill: #3e6bb3;
      }

      .st5 {
        fill: #f4d940;
      }

      .st6 {
        fill: #f08920;
      }

      .st7 {
        fill: #a85ca0;
      }
    </style>
  </defs>
  <rect class="st0" x="450" y="450" width="100" height="100"/>
  <g>
    <g>
      <rect class="st1" x="790.41" y="790.41" width="109.59" height="109.59"/>
      <rect class="st1" x="675.34" y="790.41" width="109.59" height="109.59"/>
      <rect class="st1" x="790.41" y="675.34" width="109.59" height="109.59"/>
      <rect class="st1" x="790.41" y="560.27" width="109.59" height="109.59"/>
    </g>
    <g>
      <rect class="st1" x="560.28" y="100" width="109.59" height="109.59"/>
      <rect class="st1" x="560.28" y="215.07" width="109.59" height="109.59"/>
      <rect class="st1" x="445.2" y="100" width="109.59" height="109.59"/>
      <rect class="st1" x="330.13" y="100" width="109.59" height="109.59"/>
    </g>
    <g>
      <rect class="st2" x="100" y="675.34" width="109.59" height="109.59"/>
      <rect class="st2" x="215.07" y="675.34" width="109.59" height="109.59"/>
      <rect class="st2" x="330.14" y="675.34" width="109.59" height="109.59"/>
      <rect class="st2" x="330.14" y="560.27" width="109.59" height="109.59"/>
    </g>
    <g>
      <rect class="st2" x="445.2" y="215.07" width="109.59" height="109.59"/>
      <rect class="st2" x="330.13" y="215.07" width="109.59" height="109.59"/>
      <rect class="st2" x="215.07" y="215.07" width="109.59" height="109.59"/>
      <rect class="st2" x="215.07" y="330.13" width="109.59" height="109.59"/>
    </g>
    <g>
      <rect class="st7" x="445.21" y="330.14" width="109.59" height="109.59"/>
      <rect class="st7" x="445.21" y="445.21" width="109.59" height="109.59"/>
      <rect class="st7" x="560.27" y="330.14" width="109.59" height="109.59"/>
      <rect class="st7" x="560.27" y="445.21" width="109.59" height="109.59"/>
    </g>
    <g>
      <rect class="st6" x="445.2" y="560.27" width="109.59" height="109.59"/>
      <rect class="st6" x="445.2" y="675.34" width="109.59" height="109.59"/>
      <rect class="st6" x="560.27" y="675.35" width="109.59" height="109.59"/>
      <rect class="st6" x="560.27" y="790.41" width="109.59" height="109.59"/>
    </g>
    <g>
      <rect class="st6" x="675.34" y="215.07" width="109.59" height="109.59"/>
      <rect class="st6" x="675.35" y="330.14" width="109.59" height="109.59"/>
      <rect class="st6" x="790.41" y="330.14" width="109.59" height="109.59"/>
      <rect class="st6" x="790.42" y="445.21" width="109.59" height="109.59"/>
    </g>
    <g>
      <rect class="st5" x="330.13" y="445.21" width="109.59" height="109.59"/>
      <rect class="st5" x="330.13" y="330.14" width="109.59" height="109.59"/>
      <rect class="st5" x="215.07" y="560.28" width="109.59" height="109.59"/>
      <rect class="st5" x="215.06" y="445.21" width="109.59" height="109.59"/>
    </g>
    <g>
      <rect class="st4" x="675.34" y="675.34" width="109.59" height="109.59"/>
      <rect class="st4" x="675.34" y="560.28" width="109.59" height="109.59"/>
      <rect class="st4" x="560.27" y="560.28" width="109.59" height="109.59"/>
      <rect class="st4" x="675.35" y="445.21" width="109.59" height="109.59"/>
    </g>
    <g>
      <rect class="st3" x="445.2" y="790.41" width="109.59" height="109.59"/>
      <rect class="st3" x="330.13" y="790.41" width="109.59" height="109.59"/>
      <rect class="st3" x="215.07" y="790.41" width="109.59" height="109.59"/>
      <rect class="st3" x="100" y="790.41" width="109.59" height="109.59"/>
    </g>
    <g>
      <rect class="st3" x="100" y="560.27" width="109.59" height="109.59"/>
      <rect class="st3" x="100" y="445.2" width="109.59" height="109.59"/>
      <rect class="st3" x="100" y="330.14" width="109.59" height="109.59"/>
      <rect class="st3" x="100" y="215.07" width="109.59" height="109.59"/>
    </g>
  </g>
</svg>